<?xml version="1.0" encoding="utf-8"?>
<!-- Generator: Adobe Illustrator 24.0.2, SVG Export Plug-In . SVG Version: 6.00 Build 0)  -->
<svg version="1.1" id="Capa_1" xmlns="http://www.w3.org/2000/svg" xmlns:xlink="http://www.w3.org/1999/xlink" x="0px" y="0px"
	 viewBox="0 0 16 16" style="enable-background:new 0 0 16 16;" xml:space="preserve">
<style type="text/css">
	.st0{fill:#FFFFFF;}
	.st1{fill:#CF000F;}
	.st2{fill:none;stroke:#CF000F;stroke-width:0.3248;stroke-miterlimit:10;}
</style>
<g>
	<path class="st0" d="M12.4,5.74c0.42-2.19-1.02-4.3-3.21-4.72C7.01,0.6,4.89,2.03,4.47,4.22c-0.42,2.19,1.02,4.3,3.21,4.72
		C9.87,9.37,11.99,7.93,12.4,5.74"/>
	<path class="st1" d="M8.43,4.95c0,0,0.99-3.11-0.41-3.98c0,0-1,0.05-1.99,0.77l0.01,0C6.04,1.74,7.98,1.75,8.43,4.95"/>
	<path class="st1" d="M8.41,4.95c0,0-2.15-2.46-3.62-1.71c0,0-0.47,0.88-0.37,2.1l0.01,0C4.43,5.34,5.44,3.69,8.41,4.95"/>
	<path class="st1" d="M8.48,4.97c0,0,3.22-0.59,3.32-2.23c0,0-0.52-0.85-1.62-1.39v0.01C10.18,1.35,11.08,3.06,8.48,4.97"/>
	<g>
		<path class="st1" d="M8.4,5c0,0-3.22,0.54-3.35,2.18c0,0,0.5,0.86,1.6,1.42V8.59C6.64,8.59,5.76,6.87,8.4,5"/>
		<path class="st1" d="M8.41,5.03c0,0-1.21,3.04,0.13,4c0,0,1,0.01,2.04-0.64l-0.01-0.01C10.57,8.38,8.65,8.24,8.41,5.03"/>
		<path class="st1" d="M8.47,5c0,0,2.17,2.44,3.63,1.68c0,0,0.46-0.88,0.35-2.11l-0.01,0.01C12.44,4.58,11.45,6.23,8.47,5"/>
		<line x1="7.68" y1="8.95" x2="6.38" y2="15.74"/>
		<line class="st2" x1="7.68" y1="8.95" x2="6.38" y2="15.74"/>
	</g>
</g>
</svg>
